<svg xmlns="http://www.w3.org/2000/svg" width="45" height="44" viewBox="0 0 45 44" fill="none">
<path fill-rule="evenodd" clip-rule="evenodd" d="M0 36.0625C0 29.5487 4.15203 24.0045 9.9539 21.9325C11.5308 21.3692 13.2296 21.0625 15 21.0625C16.7704 21.0625 18.4693 21.3692 20.046 21.9325C20.9028 22.2382 21.7232 22.62 22.5 23.0693C23.2768 22.62 24.0972 22.2382 24.954 21.9325C26.5307 21.3692 28.2295 21.0625 30 21.0625C31.7705 21.0625 33.4692 21.3692 35.046 21.9325C40.848 24.0045 45 29.5487 45 36.0625V43.5625H31.875V39.8125H41.25V36.0625C41.25 29.8493 36.2132 24.8125 30 24.8125C28.5072 24.8125 27.0825 25.1033 25.779 25.6313C28.392 28.3307 30 32.0088 30 36.0625V43.5625H0V36.0625ZM15 19.1875C13.2776 19.1875 11.6637 18.723 10.2767 17.9125C7.49425 16.2865 5.625 13.2678 5.625 9.8125C5.625 4.63483 9.82232 0.4375 15 0.4375C18.0667 0.4375 20.7895 1.91003 22.5 4.18657C24.2105 1.91003 26.9333 0.4375 30 0.4375C35.1777 0.4375 39.375 4.63483 39.375 9.8125C39.375 13.2678 37.5057 16.2865 34.7232 17.9125C33.3362 18.723 31.7225 19.1875 30 19.1875C28.2775 19.1875 26.6637 18.723 25.2767 17.9125C24.194 17.2797 23.2498 16.4362 22.5 15.4384C21.7502 16.4365 20.806 17.2797 19.7233 17.9125C18.3363 18.723 16.7224 19.1875 15 19.1875ZM26.25 36.0625V39.8125H3.75V36.0625C3.75 29.8493 8.7868 24.8125 15 24.8125C21.2132 24.8125 26.25 29.8493 26.25 36.0625ZM20.625 9.8125C20.625 12.9191 18.1065 15.4375 15 15.4375C11.8934 15.4375 9.375 12.9191 9.375 9.8125C9.375 6.7059 11.8934 4.1875 15 4.1875C18.1065 4.1875 20.625 6.7059 20.625 9.8125ZM30 4.1875C26.8935 4.1875 24.375 6.7059 24.375 9.8125C24.375 12.9191 26.8935 15.4375 30 15.4375C33.1065 15.4375 35.625 12.9191 35.625 9.8125C35.625 6.7059 33.1065 4.1875 30 4.1875Z" fill="#5E5DEF"/>
<path fill-rule="evenodd" clip-rule="evenodd" d="M0 36.0625C0 29.5487 4.15203 24.0045 9.9539 21.9325C11.5308 21.3692 13.2296 21.0625 15 21.0625C16.7704 21.0625 18.4693 21.3692 20.046 21.9325C20.9028 22.2382 21.7232 22.62 22.5 23.0693C23.2768 22.62 24.0972 22.2382 24.954 21.9325C26.5307 21.3692 28.2295 21.0625 30 21.0625C31.7705 21.0625 33.4692 21.3692 35.046 21.9325C40.848 24.0045 45 29.5487 45 36.0625V43.5625H31.875V39.8125H41.25V36.0625C41.25 29.8493 36.2132 24.8125 30 24.8125C28.5072 24.8125 27.0825 25.1033 25.779 25.6313C28.392 28.3307 30 32.0088 30 36.0625V43.5625H0V36.0625ZM15 19.1875C13.2776 19.1875 11.6637 18.723 10.2767 17.9125C7.49425 16.2865 5.625 13.2678 5.625 9.8125C5.625 4.63483 9.82232 0.4375 15 0.4375C18.0667 0.4375 20.7895 1.91003 22.5 4.18657C24.2105 1.91003 26.9333 0.4375 30 0.4375C35.1777 0.4375 39.375 4.63483 39.375 9.8125C39.375 13.2678 37.5057 16.2865 34.7232 17.9125C33.3362 18.723 31.7225 19.1875 30 19.1875C28.2775 19.1875 26.6637 18.723 25.2767 17.9125C24.194 17.2797 23.2498 16.4362 22.5 15.4384C21.7502 16.4365 20.806 17.2797 19.7233 17.9125C18.3363 18.723 16.7224 19.1875 15 19.1875ZM26.25 36.0625V39.8125H3.75V36.0625C3.75 29.8493 8.7868 24.8125 15 24.8125C21.2132 24.8125 26.25 29.8493 26.25 36.0625ZM20.625 9.8125C20.625 12.9191 18.1065 15.4375 15 15.4375C11.8934 15.4375 9.375 12.9191 9.375 9.8125C9.375 6.7059 11.8934 4.1875 15 4.1875C18.1065 4.1875 20.625 6.7059 20.625 9.8125ZM30 4.1875C26.8935 4.1875 24.375 6.7059 24.375 9.8125C24.375 12.9191 26.8935 15.4375 30 15.4375C33.1065 15.4375 35.625 12.9191 35.625 9.8125C35.625 6.7059 33.1065 4.1875 30 4.1875Z" fill="url(#paint0_linear_754_3009)" fill-opacity="0.5"/>
<defs>
<linearGradient id="paint0_linear_754_3009" x1="22.5" y1="0.4375" x2="22.5" y2="43.5625" gradientUnits="userSpaceOnUse">
<stop offset="0.615" stop-color="#C7C6F3" stop-opacity="0"/>
<stop offset="1" stop-color="#C7C6F3"/>
</linearGradient>
</defs>
</svg>