<svg xmlns="http://www.w3.org/2000/svg" width="31" height="40" viewBox="0 0 31 40" fill="none">
<path d="M27.5 33.7143V28.5714C27.5 27.2857 26.9 26 25.7 25.1429L20.15 21.1429C19.7 20.8571 19.55 20.4286 19.55 20C19.55 19.5714 19.7 19.1429 20.15 18.8571L25.7 14.8571C26.9 14 27.5 12.7143 27.5 11.4286V6.28571C29.3 5.28571 30.5 3.42857 30.5 1.42857C30.5 0.571429 29.9 0 29 0H2C1.1 0 0.5 0.571429 0.5 1.42857C0.5 3.57143 1.7 5.28571 3.5 6.28571V11.4286C3.5 12.7143 4.1 14 5.3 14.8571L10.85 18.8571C11.3 19.1429 11.45 19.5714 11.45 20C11.45 20.4286 11.3 20.8571 10.85 21.1429L5.3 25.1429C4.1 26 3.5 27.2857 3.5 28.5714V33.7143C1.7 34.7143 0.5 36.5714 0.5 38.5714C0.5 39.4286 1.1 40 2 40H29C29.9 40 30.5 39.4286 30.5 38.5714C30.5 36.4286 29.3 34.7143 27.5 33.7143ZM10.1 12.5714C9.5 12.2857 9.35 11.5714 9.5 11C9.8 10.4286 10.4 10 11 10H20C20.6 10 21.2 10.4286 21.5 11C21.65 11.5714 21.5 12.2857 20.9 12.5714L16.4 15.4286C16.1 15.5714 15.8 15.7143 15.5 15.7143C15.2 15.7143 14.9 15.5714 14.6 15.4286L10.1 12.5714ZM14.45 26.1429C15.05 25.5714 15.95 25.5714 16.55 26.1429L23.6 32.8571H7.4L14.45 26.1429Z" fill="#5E5DEF"/>
<path d="M27.5 33.7143V28.5714C27.5 27.2857 26.9 26 25.7 25.1429L20.15 21.1429C19.7 20.8571 19.55 20.4286 19.55 20C19.55 19.5714 19.7 19.1429 20.15 18.8571L25.7 14.8571C26.9 14 27.5 12.7143 27.5 11.4286V6.28571C29.3 5.28571 30.5 3.42857 30.5 1.42857C30.5 0.571429 29.9 0 29 0H2C1.1 0 0.5 0.571429 0.5 1.42857C0.5 3.57143 1.7 5.28571 3.5 6.28571V11.4286C3.5 12.7143 4.1 14 5.3 14.8571L10.85 18.8571C11.3 19.1429 11.45 19.5714 11.45 20C11.45 20.4286 11.3 20.8571 10.85 21.1429L5.3 25.1429C4.1 26 3.5 27.2857 3.5 28.5714V33.7143C1.7 34.7143 0.5 36.5714 0.5 38.5714C0.5 39.4286 1.1 40 2 40H29C29.9 40 30.5 39.4286 30.5 38.5714C30.5 36.4286 29.3 34.7143 27.5 33.7143ZM10.1 12.5714C9.5 12.2857 9.35 11.5714 9.5 11C9.8 10.4286 10.4 10 11 10H20C20.6 10 21.2 10.4286 21.5 11C21.65 11.5714 21.5 12.2857 20.9 12.5714L16.4 15.4286C16.1 15.5714 15.8 15.7143 15.5 15.7143C15.2 15.7143 14.9 15.5714 14.6 15.4286L10.1 12.5714ZM14.45 26.1429C15.05 25.5714 15.95 25.5714 16.55 26.1429L23.6 32.8571H7.4L14.45 26.1429Z" fill="url(#paint0_linear_754_3059)"/>
<defs>
<linearGradient id="paint0_linear_754_3059" x1="15.5" y1="0" x2="15.5" y2="40" gradientUnits="userSpaceOnUse">
<stop offset="0.545" stop-color="#AF99FB" stop-opacity="0"/>
<stop offset="1" stop-color="#AF99FB"/>
</linearGradient>
</defs>
</svg>