<svg width="47" height="48" viewBox="0 0 47 48" fill="none" xmlns="http://www.w3.org/2000/svg">
<path d="M8.40876 8.40701C0.157449 16.659 -0.125334 29.8592 7.55651 38.4531L9.78365 37.3974C6.27718 33.7427 4.34713 28.9628 4.34713 23.8819C4.34713 18.6631 6.37859 13.7571 10.0697 10.0673C13.7595 6.3762 18.6655 4.34473 23.8843 4.34473C27.5298 4.34473 31.0214 5.33934 34.0539 7.19529L36.5287 6.02256C32.7505 3.34169 28.3132 1.99994 23.8765 1.99994C18.2787 1.99994 12.681 4.13542 8.40876 8.40701Z" fill="url(#paint0_linear_428_759)"/>
<path d="M20.2359 13.742L31.8851 8.22293C29.3804 6.94555 26.6332 6.30328 23.8841 6.30328C19.3804 6.30328 14.8768 8.01686 11.4476 11.446C5.89477 16.9988 4.83841 25.3711 8.27792 31.9966C11.1909 32.9892 12.8706 33.5619 15.7836 34.5546L25.651 29.8786C26.5468 29.4548 27.3145 28.7644 27.7344 27.8667C28.1394 27.0014 28.2285 26.0569 28.0101 25.1643L22.8225 27.6235C20.3178 28.808 17.3184 27.7367 16.1327 25.2352C14.0954 20.935 15.9364 15.7793 20.2359 13.742Z" fill="url(#paint1_linear_428_759)"/>
<path d="M35.4396 37.1426C41.1751 32.1279 42.8152 24.3336 40.3599 17.7296C36.4836 16.2078 34.4404 15.4056 30.564 13.8845L22.184 17.8544C20.1519 18.8178 19.2821 21.2543 20.2449 23.287C20.356 23.5211 20.6382 23.6238 20.8741 23.5107L26.8853 20.6614C28.7413 19.7832 30.9645 20.5769 31.8434 22.4315C32.8302 24.5144 32.9472 26.8572 32.1723 29.0284C31.3974 31.1983 29.823 32.9373 27.7408 33.9247L15.8771 39.5459C18.5437 40.913 21.5398 41.5845 24.6419 41.4545C28.6112 41.288 32.4486 39.7578 35.4396 37.1426Z" fill="url(#paint2_linear_428_759)"/>
<path d="M37.9855 10.3676C41.492 14.0223 43.422 18.8022 43.422 23.8819C43.422 29.1006 41.3899 34.0073 37.7001 37.6971C34.0097 41.3875 29.103 43.4203 23.8843 43.4203C20.2393 43.4203 16.7478 42.4263 13.7153 40.5697L11.2398 41.7431C19.7849 47.8069 31.7026 47.0152 39.3598 39.358C47.6117 31.1067 47.8939 17.9058 40.212 9.3132L37.9855 10.3676Z" fill="url(#paint3_linear_428_759)"/>
<defs>
<linearGradient id="paint0_linear_428_759" x1="2.0001" y1="20.2266" x2="36.5286" y2="20.2266" gradientUnits="userSpaceOnUse">
<stop stop-color="#5342FF"/>
<stop offset="0.89253" stop-color="#E8B8FF"/>
<stop offset="1" stop-color="#E8B8FF"/>
</linearGradient>
<linearGradient id="paint1_linear_428_759" x1="19.0948" y1="6.30329" x2="19.0948" y2="34.5546" gradientUnits="userSpaceOnUse">
<stop stop-color="#443DFF"/>
<stop offset="1" stop-color="#704AF2"/>
</linearGradient>
<linearGradient id="paint2_linear_428_759" x1="28.6705" y1="13.8845" x2="28.6705" y2="41.4703" gradientUnits="userSpaceOnUse">
<stop stop-color="#443DFF"/>
<stop offset="1" stop-color="#704AF2"/>
</linearGradient>
<linearGradient id="paint3_linear_428_759" x1="11.2404" y1="27.5388" x2="45.7688" y2="27.5388" gradientUnits="userSpaceOnUse">
<stop stop-color="#5342FF"/>
<stop offset="0.89253" stop-color="#E8B8FF"/>
<stop offset="1" stop-color="#E8B8FF"/>
</linearGradient>
</defs>
</svg>
